<svg xmlns="http://www.w3.org/2000/svg" width="26.401" height="41.683" viewBox="0 0 26.401 41.683">
  <g id="table-lamp_2_" data-name="table-lamp (2)" transform="translate(-93.856)">
    <path id="Path_91848" data-name="Path 91848" d="M116.721,1.426A1.73,1.73,0,0,0,115.017,0H99.094a1.73,1.73,0,0,0-1.7,1.426l-1.5,8.352a.611.611,0,0,0,1.2.215l1.5-8.352a.509.509,0,0,1,.5-.42h15.923a.509.509,0,0,1,.5.42c3.714,20.729,3.514,19.591,3.514,19.662a.51.51,0,0,1-.51.508H95.588a.509.509,0,0,1-.5-.6L96.593,12.8a.611.611,0,0,0-1.2-.215c-1.628,9.09-1.534,8.5-1.534,8.72a1.732,1.732,0,0,0,1.731,1.729H103.1a1.865,1.865,0,0,0,.071,1.458c-3.387,1.294-5.6,4.17-5.6,7.4a7.857,7.857,0,0,0,4.256,6.765,1.89,1.89,0,0,0,1.509,3.029h7.444a1.89,1.89,0,0,0,1.509-3.03,9.39,9.39,0,0,0,1.26-.85.611.611,0,0,0-.764-.953,8.4,8.4,0,0,1-1.7,1.051h-8.055a6.8,6.8,0,0,1-4.239-6.012c0-2.893,2.165-5.466,5.409-6.462.48.18.452.118,5.061.118a1.865,1.865,0,0,0,.653-.118,8.526,8.526,0,0,1,3.189,1.766v5.154a.611.611,0,1,0,1.221,0V28.605a5.991,5.991,0,0,1,1,3.283,5.886,5.886,0,0,1-.823,3,.611.611,0,1,0,1.055.614,7.092,7.092,0,0,0,.989-3.61,7.431,7.431,0,0,0-2.22-5.219V23.032h4.2a1.732,1.732,0,0,0,1.731-1.729c0-.23.219,1.066-3.533-19.877Zm-5.944,37.7a.67.67,0,0,1,0,1.34h-7.444a.67.67,0,0,1,0-1.34Zm-6.237-14.879a.645.645,0,0,1,.311-1.211h4.408a.646.646,0,0,1,0,1.291C104.511,24.323,104.748,24.358,104.541,24.243Zm8.561,1.393a9.833,9.833,0,0,0-2.162-1.145,1.865,1.865,0,0,0,.071-1.458H113.1Z" transform="translate(0)" fill="#fff"/>
  </g>
</svg>
