<svg xmlns="http://www.w3.org/2000/svg" width="32.534" height="50.612" viewBox="0 0 32.534 50.612">
  <g id="Group_3539" data-name="Group 3539" transform="translate(-453.809 -239.868)">
    <g id="table-lamp_1_" data-name="table-lamp (1)" transform="translate(458.235 252.42)">
      <path id="Path_91849" data-name="Path 91849" d="M148.108,314.213h7.827a7,7,0,0,0,4.437-6.23c0-3.894-3.738-7.051-8.35-7.051s-8.35,3.157-8.35,7.051A7,7,0,0,0,148.108,314.213Z" transform="translate(-140.18 -278.563)" fill="#fff"/>
      <path id="Path_91850" data-name="Path 91850" d="M237.078,300.933a9.9,9.9,0,0,0-1.52.117c3.886.6,6.831,3.478,6.831,6.934a7,7,0,0,1-4.437,6.23h3.039a7,7,0,0,0,4.437-6.23C245.428,304.09,241.69,300.933,237.078,300.933Z" transform="translate(-225.238 -278.563)" fill="#fff"/>
      <path id="Path_91851" data-name="Path 91851" d="M200.905,479.589h-7a1.2,1.2,0,1,0,0,2.409h7a1.2,1.2,0,0,0,0-2.409Z" transform="translate(-185.564 -443.938)" fill="#fff"/>
      <g id="Group_3476" data-name="Group 3476" transform="translate(17.528 19.942)">
        <path id="Path_91852" data-name="Path 91852" d="M333.08,278.753a.574.574,0,0,1-.574-.574v-9.336a.574.574,0,0,1,1.149,0v9.336A.574.574,0,0,1,333.08,278.753Z" transform="translate(-332.506 -268.268)" fill="#fff"/>
      </g>
      <path id="Path_91853" data-name="Path 91853" d="M217.545,278.358H213.4a1.182,1.182,0,1,1,0-2.363h4.146a1.182,1.182,0,1,1,0,2.363Z" transform="translate(-203.631 -255.479)" fill="#fff"/>
      <path id="Path_91854" data-name="Path 91854" d="M116.039,0H101.061a1.054,1.054,0,0,0-1.037.868l-3.3,18.408a1.054,1.054,0,0,0,1.037,1.24h21.573a1.054,1.054,0,0,0,1.038-1.24L117.076.868A1.054,1.054,0,0,0,116.039,0Z" transform="translate(-96.709 0)" fill="#fec165"/>
      <path id="Path_91855" data-name="Path 91855" d="M323.236,19.276,319.939.868A1.054,1.054,0,0,0,318.9,0h-3.039A1.054,1.054,0,0,1,316.9.868l3.3,18.408a1.054,1.054,0,0,1-1.037,1.24H322.2A1.054,1.054,0,0,0,323.236,19.276Z" transform="translate(-299.571 0)" fill="#fec165"/>
    </g>
    <g id="street-lamp" transform="translate(453.809 239.867)">
      <g id="Group_3484" data-name="Group 3484" transform="translate(0 0)">
        <g id="Group_3483" data-name="Group 3483">
          <path id="Path_91857" data-name="Path 91857" d="M233.189,6.975a1.163,1.163,0,0,0,1.162-1.162V1.162a1.162,1.162,0,1,0-2.325,0v4.65A1.163,1.163,0,0,0,233.189,6.975Z" transform="translate(-216.919)" fill="#fec165"/>
          <path id="Path_91858" data-name="Path 91858" d="M174.529,21.888a1.162,1.162,0,0,0,2.021-1.149l-.008-.013L174.218,16.7a1.162,1.162,0,0,0-2.013,1.162Z" transform="translate(-165.659 -13.781)" fill="#fec165"/>
          <path id="Path_91859" data-name="Path 91859" d="M133.248,64.626a1.162,1.162,0,0,0,.581-2.169L129.8,60.132a1.162,1.162,0,0,0-1.176,2.006l.013.008,4.027,2.325A1.152,1.152,0,0,0,133.248,64.626Z" transform="translate(-128.052 -51.258)" fill="#fec165"/>
          <path id="Path_91860" data-name="Path 91860" d="M314.391,60.58a1.163,1.163,0,0,0-1.588-.425l-4.027,2.325a1.162,1.162,0,1,0,1.149,2.021l.013-.008,4.027-2.325A1.163,1.163,0,0,0,314.391,60.58Z" transform="translate(-282.013 -51.281)" fill="#fec165"/>
          <path id="Path_91861" data-name="Path 91861" d="M276.607,22.315a1.162,1.162,0,0,0,1.588-.425l2.325-4.027a1.162,1.162,0,0,0-2.013-1.162l-2.325,4.027A1.163,1.163,0,0,0,276.607,22.315Z" transform="translate(-254.524 -13.782)" fill="#fec165"/>
        </g>
      </g>
    </g>
  </g>
</svg>
