<svg id="relax" xmlns="http://www.w3.org/2000/svg" width="48.902" height="43.292" viewBox="0 0 48.902 43.292">
  <path id="Path_91828" data-name="Path 91828" d="M118.87,132.346l-11.287-4.55a2.519,2.519,0,0,0-1.241-.165l-8.265.99-2.77-5.3a2.817,2.817,0,0,1-1.8-.14l-7.693-3.324,8.006,1.16a2.1,2.1,0,0,0,1.864-.676l5.593-6.243a2.1,2.1,0,0,0-3.126-2.8L93.309,116.7l-6.893-1,4.618-.557-.33-.632a3.128,3.128,0,0,0-4.221-1.323l-4.717,2.466a3.128,3.128,0,0,0-1.2,4.434l8.227,13.12a2.876,2.876,0,0,0,2.91,1.243l14.6-1.749,10.688,4.308a2.518,2.518,0,1,0,1.883-4.67Z" transform="translate(-71.545 -101.61)" fill="#fff"/>
  <ellipse id="Ellipse_63" data-name="Ellipse 63" cx="4.631" cy="4.631" rx="4.631" ry="4.631" transform="translate(7.373 0.203)" fill="#fff"/>
  <path id="Path_91829" data-name="Path 91829" d="M245.026,34.014l2.484-5.033a1.018,1.018,0,0,0-.619-1.425l-4.032-1.214a1.018,1.018,0,0,0-1.279.72l-1.787,6.918A4.284,4.284,0,0,1,245.026,34.014Z" transform="translate(-214.218 -26.299)" fill="#fff"/>
  <path id="Path_91830" data-name="Path 91830" d="M47.168,168.086l-11.853-6a1.737,1.737,0,0,0-.785-.187h-18.3L3.209,141.047a1.737,1.737,0,1,0-2.946,1.84L12.68,162.77,1.9,168.077a1.737,1.737,0,1,0,1.534,3.116l11.838-5.825H34.116L45.6,171.184a1.737,1.737,0,1,0,1.569-3.1Z" transform="translate(0 -128.08)" fill="#fff"/>
</svg>
