<svg id="reading-book" xmlns="http://www.w3.org/2000/svg" width="41.381" height="49.042" viewBox="0 0 41.381 49.042">
  <ellipse id="Ellipse_64" data-name="Ellipse 64" cx="7.742" cy="8.295" rx="7.742" ry="8.295" transform="translate(12.949 0)" fill="#fff"/>
  <path id="Path_91831" data-name="Path 91831" d="M156.416,181.515a11.044,11.044,0,0,1-12.022,0,16.825,16.825,0,0,0-5.233,3.2l11.244,4.217,11.244-4.217A16.822,16.822,0,0,0,156.416,181.515Z" transform="translate(-129.714 -164.278)" fill="#fff"/>
  <path id="Path_91832" data-name="Path 91832" d="M413.406,310h-.962A1.444,1.444,0,0,0,411,311.444v3.849a1.444,1.444,0,0,0,1.444,1.444h.962a3.368,3.368,0,1,0,0-6.736Z" transform="translate(-375.393 -280.398)" fill="#fff"/>
  <path id="Path_91833" data-name="Path 91833" d="M81.621,231.861A1.443,1.443,0,0,0,81,233.047v3.214h.481a4.335,4.335,0,0,1,4.331,4.331v3.849a4.335,4.335,0,0,1-4.331,4.331H81v3.042a1.444,1.444,0,0,0,.937,1.352L96.4,258.588V236.738L82.95,231.7A1.443,1.443,0,0,0,81.621,231.861Z" transform="translate(-77.151 -209.546)" fill="#fff"/>
  <path id="Path_91834" data-name="Path 91834" d="M281.586,244.441v-3.849a4.335,4.335,0,0,1,4.331-4.331h.481v-3.214a1.443,1.443,0,0,0-1.95-1.352L271,236.738v21.849l14.461-5.423a1.443,1.443,0,0,0,.937-1.352v-3.042h-.481A4.335,4.335,0,0,1,281.586,244.441Z" transform="translate(-248.866 -209.546)" fill="#fff"/>
  <path id="Path_91835" data-name="Path 91835" d="M46.774,315.293v-3.849A1.444,1.444,0,0,0,45.331,310h-.962a3.368,3.368,0,1,0,0,6.736h.962A1.444,1.444,0,0,0,46.774,315.293Z" transform="translate(-41 -280.398)" fill="#fff"/>
</svg>
