<?xml version="1.0" standalone="no"?>
<!DOCTYPE svg PUBLIC "-//W3C//DTD SVG 1.0//EN" "http://www.w3.org/TR/2001/REC-SVG-20010904/DTD/svg10.dtd">
<svg xmlns="http://www.w3.org/2000/svg" xmlns:xlink="http://www.w3.org/1999/xlink" id="body_1" width="24" height="24">

<g transform="matrix(0.48 0 0 0.48 0 0)">
	<g transform="matrix(0.2593953 0 0 0.2593953 0 0)">
		<g>
            <path d="M0 0L192.756 0L192.756 192.756L0 192.756L0 0z" stroke="none" fill="#FFFFFF" fill-rule="nonzero" />
            <path d="M148.164 9.386L132.451 9.386L132.451 12.342999L132.63701 12.342999C 133.50002 12.466999 134.48502 12.466999 135.59401 12.528L135.59401 12.528L135.90302 12.8359995C 139.41501 16.163 142.80301 19.737 145.94601 23.495998L145.94601 23.495998L145.94601 23.680998C 146.13202 25.898998 146.00801 27.870998 145.70001 29.595997L145.70001 29.595997L145.70001 29.657997C 144.28201 30.027998 142.74301 30.150997 141.016 30.088997L141.016 30.088997L141.016 33.046997L158.27 33.046997L158.27 32.861996L158.27 31.752996L158.27 30.088997L158.084 30.088997C 156.482 30.088997 155.004 30.026997 153.709 29.718996L153.709 29.718996L153.709 29.594995C 153.217 27.930996 153.094 25.897995 153.277 23.494995L153.277 23.494995L153.4 23.494995C 156.73877 19.84851 160.10321 16.237793 163.50499 12.649995L163.50499 12.649995L163.691 12.649995C 164.554 12.403995 165.66199 12.341995 166.957 12.341995L166.957 12.341995L166.957 12.2199955L166.957 9.385996L166.771 9.385996C 162.519 9.323996 158.453 9.385996 154.509 9.570996L154.509 9.570996L154.509 12.343996L154.632 12.343996C 155.741 12.158996 156.48201 12.343996 156.851 12.836996C 156.851 12.898996 156.851 12.898996 156.79 12.959996C 155.30875 15.29962 153.43175 17.363731 151.243 19.059996C 150.073 18.196995 148.96399 17.272995 147.97699 16.225996C 146.93 15.116996 146.12898 14.006996 145.69798 12.836996L145.69798 12.836996L145.69798 12.774996C 146.31299 12.342996 147.11598 12.2199955 148.16298 12.342996L148.16298 12.342996L148.16298 12.2199955L148.16399 9.385996L148.164 9.386zM106.326 9.571L94.065 9.571L94.065 9.695C 93.942 10.8029995 94.003006 11.728 94.188 12.528999L94.188 12.528999L94.373 12.528999C 96.221 12.282 97.701004 12.466999 98.685 13.1449995C 98.870995 13.1449995 98.993996 13.207 98.993996 13.452999C 99.117 17.15 99.17999 20.97 99.24 24.912998C 99.301994 26.946999 99.056 28.547998 98.562 29.904C 98.501 29.904 98.438995 29.904 98.438995 29.966C 97.20699 30.274 95.728 30.397 94.063995 30.212L94.063995 30.212L94.063995 33.169L108.480995 33.169L108.480995 33.045L108.480995 31.750998L108.480995 30.209997L108.357994 30.209997C 106.38699 30.394997 104.909 30.209997 103.85999 29.593998C 103.798996 29.470999 103.73699 29.408998 103.73699 29.285997C 103.42799 25.034998 103.42799 20.783997 103.675995 16.531998C 104.56307 17.668217 105.55293 18.720339 106.632996 19.674997C 110.94499 23.679996 115.197 27.684998 119.449 31.751997C 119.940994 32.183 120.373 32.676 120.92799 33.169L120.92799 33.169L121.050995 33.169C 122.961 33.231 124.809 33.169 126.534996 33.045C 126.47299 32.615894 126.47299 32.180103 126.534996 31.750998L126.534996 31.750998L126.349 17.948997C 126.288 16.099998 126.410995 14.436997 126.781 13.142998C 126.781 13.080997 126.781 13.018998 126.842995 13.018998C 127.767 12.525998 129.06 12.340998 130.724 12.525998L130.724 12.525998L130.724 12.340998L130.724 9.568997L116.86 9.568997L116.86 9.692997C 116.737 10.800997 116.798004 11.725997 116.983 12.526997L116.983 12.526997L117.169 12.526997C 118.954 12.218997 120.312 12.464996 121.235 13.142997L121.235 13.142997L121.296 13.142997C 121.604996 16.593996 121.604996 20.043997 121.357994 23.494997C 121.23499 23.309998 121.048996 23.124996 120.86399 22.939997C 116.05899 18.502996 111.25299 14.004996 106.44599 9.568996C 106.38899 9.570996 106.38899 9.570996 106.32599 9.570996zM88.334 11.728C 85.685 10.125 82.542 9.139999 78.846 8.7699995C 74.471 8.276999 70.712 8.462 67.324 9.386C 61.717 10.8029995 58.388996 14.5 57.404 20.477C 57.527 24.605999 58.759 27.563 61.100998 29.473C 62.21 30.397 63.441998 31.137 64.859 31.753C 68.31 33.232 72.561005 33.848 77.552 33.602C 80.633 33.355 83.282005 32.739002 85.562004 31.753002C 88.088005 30.583002 90.060005 28.857002 91.477005 26.577002C 92.40101 25.160002 92.83201 23.311 92.771 21.032001C 92.70901 16.595001 91.16901 13.453001 88.33401 11.728002zM68.371 28.24C 66.399 26.390999 65.413 23.619 65.475006 19.799C 66.39901 13.576 70.466 10.926 77.73701 11.789C 78.84601 11.912 79.83201 12.342999 80.69501 12.898C 80.81801 12.898 80.94201 12.96 81.188 12.96C 84.207 15.117001 85.254005 18.69 84.392006 23.681C 83.65301 27.44 81.25001 29.658 77.30701 30.212C 73.36201 30.767 70.466 30.089 68.37101 28.24zM49.085 9.447C 48.654 9.693999 48.346 10.063 48.346 10.679C 48.222 11.049 47.914 11.111 47.483 10.926C 45.573 9.879 43.293003 9.261999 40.705 8.9539995C 33.496002 8.153 28.074001 9.57 24.561003 13.143999L24.561003 13.143999L24.561003 13.3289995C 24.130003 14.129999 23.883003 15.115999 23.637003 16.102L23.637003 16.102L23.637003 16.226C 23.699003 17.643 24.007004 18.751999 24.561003 19.676C 26.040003 21.34 28.135002 22.387001 30.908003 22.942001C 33.496002 23.373001 36.145004 23.805002 38.918003 24.051C 42.183002 24.359001 44.833004 25.222 46.928 26.639L46.928 26.639L46.928 26.824C 47.113003 27.81 46.805 28.673 46.127003 29.288C 44.648003 29.966 42.738003 30.397 40.581 30.521C 33.804 30.706 29.368 28.61 27.395 24.174L27.395 24.174L23.821001 24.174L23.821001 33.047L27.395 33.047C 27.395 32.985 27.457 32.985 27.457 32.985C 27.642 32.554 27.765001 32.122 28.011002 31.753C 28.073002 31.629 28.073002 31.506 28.135002 31.445C 28.197002 31.383 28.197002 31.383 28.259003 31.383C 28.752003 31.505999 29.183002 31.629 29.676003 31.753C 31.340002 32.184002 33.188004 32.616 35.160004 33.047C 39.843002 34.033 44.279003 33.848 48.469 32.493C 49.069298 32.310062 49.647747 32.061916 50.194 31.753C 51.858 30.767 52.905 29.227001 53.46 27.255001C 53.953 25.160002 53.645 23.62 52.536 22.572C 50.133 20.354 46.806 19.060001 42.615997 18.69C 38.302998 18.32 34.358997 17.519001 30.969997 16.226C 30.907997 16.226 30.907997 16.164 30.907997 16.102C 30.537996 15.855 30.352997 15.301 30.291998 14.684999C 31.215998 12.837 33.126 11.851 35.899 11.728C 41.504997 11.42 45.756996 13.021 48.653 16.411L48.653 16.411L48.653 16.533998C 48.714 17.026999 48.899 17.457998 49.084 17.765999L49.084 17.765999L52.35 17.765999L52.35 17.643L52.35 9.386L49.269 9.386C 49.208 9.386 49.147 9.386 49.085003 9.447zM166.217 39.701C 166.05826 39.53227 165.83333 39.44193 165.60199 39.454L165.60199 39.454L24.439 39.454C 24.254 39.454 24.008 39.516 23.883999 39.701C 23.699 39.886 23.575998 40.071 23.575998 40.317L23.575998 40.317L23.575998 146.35901C 23.575998 146.60501 23.699999 146.79102 23.883999 146.975C 24.008 147.16 24.254 147.22101 24.439 147.22101L24.439 147.22101L165.60199 147.22101C 165.83311 147.23306 166.05792 147.14314 166.217 146.975C 166.38574 146.81595 166.47575 146.59056 166.463 146.35901L166.463 146.35901L166.463 40.317C 166.47534 40.08552 166.3854 39.8603 166.217 39.701zM164.73799 70.263L164.73799 94.416C 158.70099 91.458 151.48999 88.809 143.04999 86.591L143.04999 86.591L109.344986 77.34801C 98.43899 73.95901 92.95499 69.52301 92.95499 64.100006C 92.95499 55.905006 99.42499 51.777008 112.42499 51.777008C 118.526985 51.777008 123.639984 53.502007 127.76899 56.953007C 133.191 60.280006 135.22398 64.77801 133.86899 70.26201L133.86899 70.26201L164.73799 70.26201L164.73799 70.26301zM25.301 41.118L49.886 41.118C 44.526 49.498 41.815002 59.541 41.876 71.248C 41.814 86.898 47.975998 98.852005 60.237 107.046005C 67.755 111.79101 81.371 116.90401 101.149994 122.38901C 116.86299 127.13301 126.71999 130.522 130.789 132.61801C 136.211 134.59001 138.982 138.04001 138.982 142.84702C 138.982 143.77101 138.92099 144.63301 138.79799 145.49602L138.79799 145.49602L98.00799 145.49602L98.00799 130.09201L45.019 130.09201L45.019 145.49602L25.301 145.49602L25.301 41.118zM161.596 159.236L163.446 159.236L163.446 157.079L161.596 157.079L161.596 154.245L158.02399 154.245L158.02399 157.079L156.41998 157.079L156.41998 159.236L158.02399 159.236L158.02399 163.67299C 158.02399 164.84299 158.39299 165.64398 159.00798 166.01399C 159.50198 166.323 160.23997 166.446 161.22697 166.446L161.22697 166.446L163.44597 166.384L163.44597 163.673L162.64497 163.735C 162.21297 163.735 161.90497 163.673 161.78197 163.426C 161.65897 163.241 161.59596 162.933 161.59596 162.502L161.59596 162.502L161.59596 159.236zM148.719 158.25L148.657 158.25L148.657 157.079L145.268 157.079L145.268 166.384L148.78 166.384L148.78 161.45401C 148.78 160.283 149.274 159.667 150.198 159.667C 150.69 159.667 150.999 159.85301 151.18399 160.16C 151.30699 160.46901 151.368 160.838 151.368 161.515L151.368 161.515L151.368 166.383L154.942 166.383L154.942 159.97499C 154.942 158.989 154.633 158.18799 153.95601 157.633C 153.40102 157.078 152.66301 156.832 151.73901 156.832C 150.38301 156.83301 149.33401 157.265 148.71901 158.25zM97.701 153.567L97.701 156.032L101.213 156.032L101.213 153.567L97.701 153.567zM95.297 160.469C 95.297 159.237 95.112 158.435 94.804 158.004C 94.126 157.203 92.832 156.833 90.861 156.833C 87.78 156.833 86.178 157.81898 86.117 159.853L86.117 159.853L89.382996 159.853C 89.44499 159.237 89.87599 158.928 90.738 158.928C 91.477 158.928 91.847 159.237 91.847 159.79C 91.847 160.222 91.539 160.469 90.923 160.592L90.923 160.592L89.321 160.838C 88.741806 160.94232 88.16605 161.06575 87.595 161.208C 86.301 161.7 85.685 162.56299 85.685 163.79599C 85.685 164.71999 85.993 165.45898 86.609 165.952C 87.225006 166.445 87.964005 166.62999 88.950005 166.62999C 90.30501 166.62999 91.29201 166.26099 91.97 165.45898C 91.97 165.76799 91.97 166.07498 92.093 166.38399L92.093 166.38399L95.728004 166.38399C 95.420006 165.95198 95.297005 165.275 95.297005 164.288L95.297005 164.288L95.297005 160.469zM89.628 162.933C 89.752 162.81 89.998 162.748 90.491 162.687C 91.106995 162.564 91.537994 162.379 91.846 162.194L91.846 162.194L91.846 163.057C 91.846 164.042 91.353004 164.47401 90.429 164.47401C 90.121 164.47401 89.813 164.41202 89.628 164.22801C 89.381996 164.10402 89.32 163.85802 89.32 163.67302C 89.321 163.36401 89.381996 163.11803 89.628 162.93301zM107.189 158.25L107.12701 158.25L107.12701 157.079L103.73801 157.079L103.73801 166.384L107.25001 166.384L107.25001 161.45401C 107.25001 160.283 107.74401 159.667 108.66801 159.667C 109.16 159.667 109.46901 159.85301 109.65401 160.16C 109.77701 160.46901 109.840004 160.838 109.840004 161.515L109.840004 161.515L109.840004 166.383L113.412 166.383L113.412 159.97499C 113.412 158.989 113.103004 158.18799 112.426 157.633C 111.811005 157.078 111.133 156.832 110.209 156.832C 108.854 156.83301 107.805 157.265 107.189 158.25zM101.213 157.079L97.701 157.079L97.701 166.384L101.213 166.384L101.213 157.07901zM82.728 154.245L79.215 154.245L79.215 157.079L77.550995 157.079L77.550995 159.236L79.215 159.236L79.215 163.67299C 79.215 164.84299 79.523994 165.64398 80.201 166.01399C 80.631996 166.323 81.370995 166.446 82.356995 166.446L82.356995 166.446L84.63699 166.384L84.63699 163.673L83.83599 163.735C 83.40499 163.735 83.09699 163.673 82.97399 163.426C 82.85099 163.241 82.72799 162.933 82.72799 162.502L82.72799 162.502L82.72799 159.236L84.63799 159.236L84.63799 157.079L82.72799 157.079L82.72799 154.245zM75.765 159.853C 76.257996 159.853 76.751 159.976 77.182 160.099L77.182 160.099L77.182 156.956C 76.812 156.833 76.443 156.833 76.196 156.833C 75.026 156.833 74.101 157.38799 73.547 158.55899L73.547 158.55899L73.547 157.07999L70.096 157.07999L70.096 166.38498L73.67 166.38498L73.67 162.68797C 73.67 160.83797 74.348 159.85297 75.765 159.85297zM137.998 156.833C 136.58 156.833 135.348 157.265 134.424 158.25C 133.5 159.175 133.069 160.345 133.069 161.763C 133.069 163.242 133.561 164.474 134.548 165.336C 135.535 166.198 136.767 166.63 138.306 166.63C 139.415 166.63 140.402 166.384 141.202 165.891C 142.12599 165.33601 142.743 164.65901 143.112 163.673L143.112 163.673L139.784 163.673C 139.47699 164.104 138.983 164.351 138.245 164.351C 137.136 164.351 136.581 163.735 136.458 162.564L136.458 162.564L143.29799 162.564C 143.29698 158.743 141.51 156.833 137.99799 156.833zM139.908 160.653L136.457 160.653C 136.641 159.605 137.258 159.112 138.30501 159.112C 138.79901 159.112 139.106 159.298 139.414 159.605C 139.723 159.853 139.908 160.222 139.908 160.653zM130.418 157.819C 129.863 157.14 129.063 156.83301 127.953 156.83301C 126.969 156.83301 126.228004 157.07901 125.551 157.511L125.551 157.511L124.996 158.004L124.810005 158.312C 124.564 157.81999 124.19501 157.511 123.703 157.204C 123.270424 156.95978 122.78176 156.83228 122.285 156.834C 120.867004 156.834 119.82001 157.327 119.205 158.313L119.205 158.313L119.205 157.08101L115.754005 157.08101L115.754005 166.38602L119.26601 166.38602L119.26601 161.33302C 119.26601 160.22403 119.698006 159.66902 120.49801 159.66902C 120.99201 159.66902 121.36101 159.85503 121.48401 160.16202C 121.60701 160.40901 121.670006 160.77802 121.670006 161.33302L121.670006 161.33302L121.670006 166.38602L125.242004 166.38602L125.242004 161.33302C 125.242004 160.22403 125.61301 159.66902 126.414 159.66902C 126.906 159.66902 127.215004 159.85503 127.398 160.16202C 127.523 160.40901 127.584 160.77802 127.584 161.33302L127.584 161.33302L127.584 166.38602L131.158 166.38602L131.158 159.97801C 131.158 159.11201 130.912 158.37401 130.418 157.81902zM36.084 153.567L25.486 153.567L25.486 166.384L36.331 166.384L36.331 163.118L29.43 163.118L29.43 161.51599L35.468002 161.51599L35.468002 158.435L29.43 158.435L29.43 156.833L36.084 156.833L36.084 153.56699zM38.549 157.079L38.549 166.384L42.061 166.384L42.061 161.45401C 42.061 160.283 42.554 159.667 43.478 159.667C 43.971 159.667 44.279 159.85301 44.464 160.16C 44.587 160.46901 44.649002 160.838 44.649002 161.515L44.649002 161.515L44.649002 166.383L48.223003 166.383L48.223003 159.97499C 48.223003 158.989 47.915005 158.18799 47.237003 157.633C 46.682003 157.078 45.943005 156.832 45.019005 156.832C 43.664005 156.832 42.616005 157.264 42.000004 158.24901L42.000004 158.24901L41.938004 158.24901L41.938004 157.078L38.549004 157.078L38.549004 157.07901zM62.887 156.833C 61.408 156.833 60.238003 157.265 59.252003 158.25C 58.389004 159.175 57.958004 160.345 57.958004 161.763C 57.958004 163.242 58.389004 164.474 59.375004 165.336C 60.360004 166.198 61.654003 166.63 63.195004 166.63C 64.304 166.63 65.29 166.384 66.091 165.891C 66.954 165.33601 67.632 164.65901 67.94 163.673L67.94 163.673L64.613 163.673C 64.304 164.104 63.872997 164.351 63.134 164.351C 62.024998 164.351 61.409 163.735 61.347 162.564L61.347 162.564L68.125 162.564C 68.125 158.743 66.399 156.833 62.887 156.833zM64.736 160.653L61.347 160.653C 61.471 159.605 62.087 159.112 63.196 159.112C 63.627 159.112 63.996998 159.298 64.305 159.605C 64.551 159.853 64.736 160.222 64.736 160.653zM51.303 157.079L49.701 157.079L49.701 159.236L51.303 159.236L51.303 163.67299C 51.303 164.84299 51.673 165.64398 52.289 166.01399C 52.782 166.323 53.521 166.446 54.507 166.446L54.507 166.446L56.725 166.384L56.725 163.673L55.924 163.735C 55.492 163.735 55.185 163.673 55.061 163.426C 54.938 163.241 54.876 162.933 54.876 162.502L54.876 162.502L54.876 159.236L56.725 159.236L56.725 157.079L54.876 157.079L54.876 154.245L51.302 154.245L51.302 157.079L51.302998 157.079zM80.325 171.189L76.751 171.189L76.751 173.65399L80.325 173.65399L80.325 171.189zM80.325 174.702L76.751 174.702L76.751 184.006L80.325 184.006L80.325 174.702zM86.917 174.455C 85.746 174.455 84.761 174.64 84.020996 175.071C 83.034996 175.564 82.479996 176.365 82.479996 177.413C 82.479996 178.21399 82.787994 178.83 83.342995 179.323C 83.95899 179.754 84.94499 180.124 86.299995 180.308C 87.101 180.431 87.655 180.616 87.90199 180.74C 88.09443 180.85815 88.21121 181.06819 88.20999 181.294C 88.21427 181.57106 88.040596 181.81969 87.77899 181.91101C 87.54107 181.99225 87.291405 182.03381 87.03999 182.03401C 86.607994 182.03401 86.299995 181.97202 86.11599 181.78702C 85.80699 181.54102 85.68399 181.29402 85.68399 180.98602L85.68399 180.98602L82.23399 180.98602C 82.29599 182.09502 82.787994 182.95802 83.773994 183.51202C 84.575 184.00502 85.684 184.25102 86.91699 184.25102C 88.21099 184.25102 89.31999 184.06602 90.18299 183.57303C 91.16899 183.01804 91.66199 182.09402 91.66199 180.98503C 91.66199 179.69102 90.92199 178.82903 89.443985 178.33603C 89.011986 178.21303 88.39699 178.09003 87.65698 177.90402C 86.917984 177.78102 86.54798 177.71902 86.30198 177.65802C 85.99398 177.47302 85.87098 177.35002 85.87098 177.16502C 85.87098 176.67302 86.24098 176.42603 86.97998 176.42603C 87.28798 176.42603 87.53498 176.54903 87.78098 176.67302C 88.026985 176.85802 88.150986 177.10402 88.21198 177.35101L88.21198 177.35101L91.415985 177.35101C 91.35399 176.30301 90.860985 175.50201 89.874985 175.00902C 89.07398 174.64001 88.08798 174.45502 86.916985 174.45502zM97.146 171.189L93.57201 171.189L93.57201 173.65399L97.146 173.65399L97.146 171.189zM97.146 174.702L93.57201 174.702L93.57201 184.006L97.146 184.006L97.146 174.702zM100.412 175.934C 99.611 176.79701 99.240005 177.906 99.240005 179.324C 99.240005 180.74101 99.61101 181.85 100.412 182.774C 101.336006 183.759 102.629005 184.253 104.293 184.253C 105.95699 184.253 107.25 183.76001 108.176 182.774C 108.977005 181.85 109.346 180.741 109.346 179.324C 109.346 177.906 108.977 176.798 108.176 175.934C 107.25 174.949 105.957 174.455 104.293 174.455C 102.629 174.455 101.336 174.948 100.412 175.934zM105.834 179.323C 105.834 180.86299 105.279 181.664 104.293 181.664C 103.307 181.664 102.752 180.863 102.752 179.323C 102.752 177.782 103.307 177.043 104.293 177.043C 105.279 177.043 105.834 177.782 105.834 179.323zM114.768 174.702L111.379 174.702L111.379 184.006L114.891 184.006L114.891 179.076C 114.891 177.905 115.385 177.289 116.309 177.289C 116.800995 177.289 117.172 177.475 117.295 177.782C 117.418 178.091 117.479 178.45999 117.479 179.137L117.479 179.137L117.479 184.00499L121.05299 184.00499L121.05299 177.59698C 121.05299 176.611 120.743996 175.80998 120.06699 175.25499C 119.51199 174.70099 118.773994 174.454 117.84999 174.454C 116.49499 174.454 115.44599 174.886 114.829994 175.871L114.829994 175.871L114.768 175.871L114.768 174.702zM25.733 174.455L29.307 174.455L29.307 184.006L33.25 184.006L33.25 174.455L36.885 174.455L36.885 171.189L25.733 171.189L25.733 174.455zM37.686 175.872C 36.762 176.797 36.331 177.96799 36.331 179.385C 36.331 180.864 36.824 182.096 37.81 182.958C 38.796 183.81999 40.028 184.252 41.568 184.252C 42.677002 184.252 43.663002 184.006 44.464 183.513C 45.388 182.95801 46.004 182.281 46.374 181.294L46.374 181.294L43.046 181.294C 42.738003 181.72601 42.245003 181.973 41.505 181.973C 40.396 181.973 39.841 181.35701 39.718002 180.186L39.718002 180.186L46.496002 180.186C 46.496002 176.366 44.77 174.45601 41.259003 174.45601C 39.843002 174.455 38.611004 174.88701 37.686005 175.87201zM41.568 176.735C 42.061 176.735 42.369 176.92 42.677002 177.227C 42.985 177.474 43.170002 177.843 43.170002 178.27501L43.170002 178.27501L39.72 178.27501C 39.904 177.22801 40.521 176.73502 41.568 176.73502zM55.493 175.872C 54.631 176.797 54.2 177.96799 54.2 179.385C 54.2 180.864 54.631 182.096 55.617 182.958C 56.603 183.81999 57.835 184.252 59.376 184.252C 60.485 184.252 61.471 184.006 62.333 183.513C 63.196 182.95801 63.874 182.281 64.182 181.294L64.182 181.294L60.855 181.294C 60.547 181.72601 60.116 181.973 59.376 181.973C 58.267 181.973 57.649998 181.35701 57.589 180.186L57.589 180.186L64.366 180.186C 64.366 176.366 62.641 174.45601 59.128998 174.45601C 57.649998 174.455 56.478996 174.88701 55.492996 175.87201zM60.977 178.275L57.588 178.275C 57.711002 177.22699 58.327 176.735 59.375 176.735C 59.867 176.735 60.237 176.92 60.484 177.227C 60.792 177.475 60.977 177.84401 60.977 178.27501zM52.104 171.189L48.531 171.189L48.531 184.006L52.103996 184.006L52.103996 171.189zM70.404 180.37L68.926 174.702L65.167 174.702L68.186 184.006L72.376 184.006L75.519 174.702L71.882996 174.702L70.465996 180.37L70.404 180.37zM175.398 143.955L175.459 143.955L176.262 147.036L177.43199 147.036L178.295 143.955L178.295 147.036L179.65 147.036L179.65 142.16899L177.555 142.16899L176.877 145.064L176.814 145.064L176.137 142.16899L173.98 142.16899L173.98 147.036L175.398 147.036L175.398 143.955zM172.07 143.4L173.42601 143.4L173.42601 142.16899L169.17601 142.16899L169.17601 143.4L170.59201 143.4L170.59201 147.036L172.07 147.036L172.07 143.4z" stroke="none" fill="#000000" fill-rule="nonzero" />
		</g>
	</g>
</g>
</svg>