<svg xmlns="http://www.w3.org/2000/svg" width="38.494" height="28.5" viewBox="0 0 38.494 28.5">
  <g id="air-conditioner_1_" data-name="air-conditioner (1)" transform="translate(0 0.001)">
    <g id="Group_3415" data-name="Group 3415" transform="translate(6.81 11.474)">
      <g id="Group_3414" data-name="Group 3414">
        <path id="Path_91816" data-name="Path 91816" d="M114.125,219.077H91.917L90.585,225h24.873Z" transform="translate(-90.585 -219.077)" fill="#2f3b52"/>
      </g>
    </g>
    <g id="Group_3417" data-name="Group 3417" transform="translate(0 0)">
      <g id="Group_3416" data-name="Group 3416">
        <path id="Path_91817" data-name="Path 91817" d="M35.163,66.462H3.331A3.335,3.335,0,0,0,0,69.793V80.527a3.335,3.335,0,0,0,3.331,3.331h1.2l1.637-7.276a1.11,1.11,0,0,1,1.083-.867H31.239a1.11,1.11,0,0,1,1.083.867l1.637,7.276h1.2a3.335,3.335,0,0,0,3.331-3.331V69.793A3.335,3.335,0,0,0,35.163,66.462Zm-9.994,7.773H23.689a1.11,1.11,0,1,1,0-2.221h1.481a1.11,1.11,0,0,1,0,2.221Zm5.182,0H28.87a1.11,1.11,0,0,1,0-2.221h1.481a1.11,1.11,0,0,1,0,2.221Z" transform="translate(0 -66.462)" fill="#2f3b52"/>
      </g>
    </g>
    <g id="Group_3419" data-name="Group 3419" transform="translate(17.766 18.876)">
      <g id="Group_3418" data-name="Group 3418">
        <path id="Path_91818" data-name="Path 91818" d="M238.529,321.117a1.021,1.021,0,0,1,.212-.662,3.2,3.2,0,0,0,.528-1.8,1.11,1.11,0,0,0-2.221,0,1.02,1.02,0,0,1-.212.662,3.348,3.348,0,0,0,0,3.61,1.141,1.141,0,0,1,0,1.325,3.2,3.2,0,0,0-.528,1.805,1.11,1.11,0,0,0,2.221,0,1.021,1.021,0,0,1,.212-.662,3.348,3.348,0,0,0,0-3.61A1.021,1.021,0,0,1,238.529,321.117Z" transform="translate(-236.308 -317.539)" fill="#2f3b52"/>
      </g>
    </g>
    <g id="Group_3421" data-name="Group 3421" transform="translate(11.844 18.876)">
      <g id="Group_3420" data-name="Group 3420">
        <path id="Path_91819" data-name="Path 91819" d="M159.76,321.117a1.021,1.021,0,0,1,.212-.662,3.2,3.2,0,0,0,.528-1.8,1.11,1.11,0,0,0-2.221,0,1.02,1.02,0,0,1-.212.662,3.348,3.348,0,0,0,0,3.61,1.141,1.141,0,0,1,0,1.325,3.2,3.2,0,0,0-.528,1.805,1.11,1.11,0,0,0,2.221,0,1.021,1.021,0,0,1,.212-.662,3.348,3.348,0,0,0,0-3.61A1.021,1.021,0,0,1,159.76,321.117Z" transform="translate(-157.539 -317.539)" fill="#2f3b52"/>
      </g>
    </g>
    <g id="Group_3423" data-name="Group 3423" transform="translate(23.689 18.876)">
      <g id="Group_3422" data-name="Group 3422">
        <path id="Path_91820" data-name="Path 91820" d="M317.3,321.117a1.021,1.021,0,0,1,.212-.662,3.2,3.2,0,0,0,.528-1.8,1.11,1.11,0,0,0-2.221,0,1.02,1.02,0,0,1-.212.662,3.348,3.348,0,0,0,0,3.61,1.141,1.141,0,0,1,0,1.325,3.2,3.2,0,0,0-.528,1.805,1.11,1.11,0,0,0,2.221,0,1.021,1.021,0,0,1,.212-.662,3.348,3.348,0,0,0,0-3.61A1.021,1.021,0,0,1,317.3,321.117Z" transform="translate(-315.077 -317.539)" fill="#2f3b52"/>
      </g>
    </g>
  </g>
</svg>
