<svg xmlns="http://www.w3.org/2000/svg" width="15.838" height="15.838" viewBox="0 0 15.838 15.838">
  <path id="lightbulb-on" d="M8.919,4.6a4.321,4.321,0,0,1,2.16,8.063v1.3a.72.72,0,0,1-.72.72H7.479a.72.72,0,0,1-.72-.72v-1.3A4.321,4.321,0,0,1,8.919,4.6m1.44,10.8v.72a.72.72,0,0,1-.72.72H8.2a.72.72,0,0,1-.72-.72V15.4h2.88m4.32-7.2h2.16v1.44h-2.16V8.2M1,8.2H3.16v1.44H1V8.2M9.639,1V3.16H8.2V1h1.44M3.822,2.8,5.356,4.34,4.333,5.356,2.8,3.829,3.822,2.8m8.661,1.533L14.009,2.8l1.029,1.029L13.505,5.356Z" transform="translate(-1 -1)" fill="#fafa03"/>
</svg>
