<svg xmlns="http://www.w3.org/2000/svg" width="15.992" height="13.981" viewBox="0 0 15.992 13.981">
  <g id="Group_3765" data-name="Group 3765" transform="translate(-51.538 -320.805)">
    <g id="exchange" transform="translate(51.538 320.805)">
      <g id="Group_3491" data-name="Group 3491" transform="translate(0 0)">
        <g id="Group_3490" data-name="Group 3490" transform="translate(0 0)">
          <path id="Path_91864" data-name="Path 91864" d="M1.281,38.18a.329.329,0,0,0,.263-.007l2.6-1.182a.334.334,0,0,0,.156-.446.328.328,0,0,0-.429-.16l-1.821.829a6.429,6.429,0,0,1,12.284.406.332.332,0,0,0,.642-.17A7.1,7.1,0,0,0,1.414,37L.649,35.084a.335.335,0,0,0-.419-.213.335.335,0,0,0-.213.419.2.2,0,0,0,.017.04l1.062,2.663A.331.331,0,0,0,1.281,38.18Z" transform="translate(0 -32.211)" fill="#707070"/>
          <path id="Path_91865" data-name="Path 91865" d="M47.24,291.113a.047.047,0,0,1-.007-.02l-1.062-2.663a.331.331,0,0,0-.186-.186.343.343,0,0,0-.263.007l-2.6,1.182a.334.334,0,1,0,.256.616l.02-.01,1.821-.829a6.434,6.434,0,0,1-12.29-.406.332.332,0,0,0-.642.17,7.1,7.1,0,0,0,13.562.453l.766,1.914a.333.333,0,1,0,.626-.226Z" transform="translate(-31.269 -280.231)" fill="#707070"/>
        </g>
      </g>
    </g>
    <text id="You_re_in_Nozha_s_ho" data-name="You’re in Nozha’s ho" transform="translate(57.147 330.243)" fill="#707070" font-size="6" font-family="Montserrat-Bold, Montserrat" font-weight="700"><tspan x="0" y="0">A</tspan></text>
  </g>
</svg>
