<svg id="speedometer" xmlns="http://www.w3.org/2000/svg" width="20.315" height="17.526" viewBox="0 0 20.315 17.526">
  <path id="Path_91873" data-name="Path 91873" d="M85.673,38.91V35.154a10.088,10.088,0,0,1,6.163,2.554L89.18,40.364A6.366,6.366,0,0,0,85.673,38.91Z" transform="translate(-74.92 -35.154)" fill="#413A88"/>
  <path id="Path_91874" data-name="Path 91874" d="M.011,123.378l2.656-2.656a10.087,10.087,0,0,1,2.557,6.163H1.467A6.366,6.366,0,0,0,.011,123.378Z" transform="translate(15.091 -117.327)" fill="#413A88"/>
  <path id="Path_91875" data-name="Path 91875" d="M384.368,126.885h-3.757a10.087,10.087,0,0,1,2.557-6.163l2.656,2.656A6.367,6.367,0,0,0,384.368,126.885Z" transform="translate(-380.611 -117.327)" fill="#413A88"/>
  <path id="Path_91876" data-name="Path 91876" d="M369.892,306.055a6.389,6.389,0,0,0,1.855,3.953.6.6,0,0,1,0,.843l-1.806,1.806a.6.6,0,0,1-.843,0,10.1,10.1,0,0,1-2.964-6.6Z" transform="translate(-366.134 -295.306)" fill="#413A88"/>
  <path id="Path_91877" data-name="Path 91877" d="M.733,309.47c-.166-.261-.418-.655-.72-1.12a6.339,6.339,0,0,0,.655-2.295H4.426a10.1,10.1,0,0,1-2.964,6.6.6.6,0,0,1-.843,0L0,312.039a1.789,1.789,0,0,0,.489-.347,1.775,1.775,0,0,0,.244-2.221Z" transform="translate(15.89 -295.306)" fill="#413A88"/>
  <path id="Path_91878" data-name="Path 91878" d="M277.163,35.154V38.91a6.366,6.366,0,0,0-3.507,1.453L271,37.708A10.088,10.088,0,0,1,277.163,35.154Z" transform="translate(-267.601 -35.154)" fill="#413A88"/>
  <path id="Path_91879" data-name="Path 91879" d="M119.222,244.751a68.335,68.335,0,0,1,4.138,5.961.6.6,0,0,1-.822.822,68.348,68.348,0,0,1-5.962-4.138,1.87,1.87,0,0,1,2.645-2.645Z" transform="translate(-107.742 -235.909)" fill="#413A88"/>
</svg>
