<svg id="speedometer" xmlns="http://www.w3.org/2000/svg" width="19.848" height="17.123" viewBox="0 0 19.848 17.123">
  <path id="Path_91873" data-name="Path 91873" d="M91.694,38.824v-3.67a9.856,9.856,0,0,0-6.021,2.5l2.595,2.595A6.22,6.22,0,0,1,91.694,38.824Z" transform="translate(-82.352 -35.154)" fill="#413A88"/>
  <path id="Path_91874" data-name="Path 91874" d="M5.1,123.317l-2.595-2.595a9.855,9.855,0,0,0-2.5,6.022h3.67A6.22,6.22,0,0,1,5.1,123.317Z" transform="translate(-0.011 -117.405)" fill="#413A88"/>
  <path id="Path_91875" data-name="Path 91875" d="M382.034,126.744h3.67a9.855,9.855,0,0,0-2.5-6.022l-2.595,2.595A6.221,6.221,0,0,1,382.034,126.744Z" transform="translate(-365.856 -117.405)" fill="#413A88"/>
  <path id="Path_91876" data-name="Path 91876" d="M368.117,306.055a6.242,6.242,0,0,1-1.812,3.862.583.583,0,0,0,0,.824l1.764,1.764a.582.582,0,0,0,.824,0,9.868,9.868,0,0,0,2.9-6.45Z" transform="translate(-351.94 -295.553)" fill="#413A88"/>
  <path id="Path_91877" data-name="Path 91877" d="M3.608,309.391c.162-.255.408-.64.7-1.094a6.194,6.194,0,0,1-.64-2.242H0a9.868,9.868,0,0,0,2.9,6.45.582.582,0,0,0,.824,0l.6-.6a1.746,1.746,0,0,1-.716-2.51Z" transform="translate(0 -295.553)" fill="#413A88"/>
  <path id="Path_91878" data-name="Path 91878" d="M271,35.154v3.67a6.219,6.219,0,0,1,3.427,1.42l2.595-2.595A9.856,9.856,0,0,0,271,35.154Z" transform="translate(-260.494 -35.154)" fill="#413A88"/>
  <path id="Path_91879" data-name="Path 91879" d="M120.164,244.738a66.763,66.763,0,0,0-4.043,5.824.581.581,0,0,0,.8.8,66.771,66.771,0,0,0,5.824-4.043,1.827,1.827,0,0,0-2.584-2.584Z" transform="translate(-111.532 -236.1)" fill="#413A88"/>
</svg>
