<svg xmlns="http://www.w3.org/2000/svg" width="15.422" height="16.8" viewBox="0 0 15.422 16.8">
  <path id="Path_92130" data-name="Path 92130" d="M26.25,16.8a5.127,5.127,0,0,0,2.518-.665.328.328,0,1,0-.323-.571,4.469,4.469,0,0,1-2.195.58,4.706,4.706,0,0,1-4.594-4.692,6.262,6.262,0,0,1,1.114-3.41,34.95,34.95,0,0,0,3.48-6.8,38.125,38.125,0,0,0,2.924,5.944,4.27,4.27,0,0,0-4.237,4.265.328.328,0,1,0,.656,0A3.613,3.613,0,0,1,29.2,7.842a3.307,3.307,0,0,0,.377-.022,6.816,6.816,0,0,1,1.093,2.319h-.486a2.3,2.3,0,0,0-2.3,2.3.328.328,0,1,0,.656,0A1.642,1.642,0,0,1,30.187,10.8H30.8a5.046,5.046,0,0,1,.044.656,4.727,4.727,0,0,1-.512,2.132.328.328,0,0,0,.585.3,5.386,5.386,0,0,0,.584-2.429,5.672,5.672,0,0,0-.04-.666A4.271,4.271,0,0,0,35.437,6.53V6.337l.424.424a.328.328,0,0,0,.464-.464l-.984-.984a.328.328,0,0,0-.464,0l-.984.984a.328.328,0,0,0,.464.464l.424-.424V6.53a3.614,3.614,0,0,1-3.434,3.6,7.232,7.232,0,0,0-1.075-2.463l0-.006a3.279,3.279,0,0,0,2.217-3.1V2.4l.424.424a.328.328,0,0,0,.464-.464l-.984-.984a.328.328,0,0,0-.464,0l-.984.984a.328.328,0,0,0,.464.464l.424-.424V4.561a2.623,2.623,0,0,1-1.936,2.533A38.188,38.188,0,0,1,26.561.222.332.332,0,0,0,26.252,0h0a.328.328,0,0,0-.305.208,37.426,37.426,0,0,1-3.717,7.465A6.933,6.933,0,0,0,21,11.451,5.331,5.331,0,0,0,26.25,16.8Z" transform="translate(-21)" fill="#707070"/>
</svg>
