<svg xmlns="http://www.w3.org/2000/svg" width="11.524" height="15.526" viewBox="0 0 11.524 15.526">
  <g id="fire-flame" transform="translate(-63.199)">
    <g id="Group_3626" data-name="Group 3626" transform="translate(63.199)">
      <path id="Path_92066" data-name="Path 92066" d="M74.046,6.657,73.238,5.01l.089,1.833a2.812,2.812,0,0,1-1.081,2.523c.19-1.413.357-4.418-1.168-6.652a6.071,6.071,0,0,0-4.32-2.54L65.6,0l.835.819A4.355,4.355,0,0,1,67.942,3.9,3.778,3.778,0,0,1,67.568,5.5,2.454,2.454,0,0,0,66.35,3.37l-.6-.325.043.682a5.094,5.094,0,0,1-1.268,3.507,5.28,5.28,0,0,0-1.308,3.7c.231,2.8,1.949,4.338,5.1,4.585.073.006.149.009.227.009a7.089,7.089,0,0,0,5.332-3.278A5.5,5.5,0,0,0,74.046,6.657Zm-5.5,8.112-.05,0,.138,0C68.607,14.766,68.576,14.77,68.548,14.77Zm4.69-2.921a6.565,6.565,0,0,1-4.331,2.9c1.492-.465,2.336-6.082-.714-6.99.8,1.4-.428,2.7-1.492,3.336s-1.781,1.229-1.347,2.591a1.138,1.138,0,0,0,.061.138,3.846,3.846,0,0,1-1.444-2.949,4.608,4.608,0,0,1,1.173-3.2,6.447,6.447,0,0,0,1.387-3.111,3.444,3.444,0,0,1,.153,2.282L66.3,8.206l1.012-.994A5.024,5.024,0,0,0,68.7,3.9a4.587,4.587,0,0,0-.95-2.726,5.023,5.023,0,0,1,2.7,1.962c1.833,2.681.931,6.809.921,6.852l-.147.65.634-.208a3.518,3.518,0,0,0,2-2.028A4.617,4.617,0,0,1,73.238,11.849Z" transform="translate(-63.199)" fill="#413A88"/>
      <path id="Path_92067" data-name="Path 92067" d="M295.395,33.146a2.128,2.128,0,0,1,.349.856c.062.326.237,1.025.237,1.025l.294-.982a1.43,1.43,0,0,0-.934-1.921l-1.379-.27s.513.428.8.641A3.008,3.008,0,0,1,295.395,33.146Z" transform="translate(-286.656 -30.846)" fill="#413A88"/>
    </g>
  </g>
</svg>
