<svg xmlns="http://www.w3.org/2000/svg" width="19.672" height="19.672" viewBox="0 0 19.672 19.672">
  <g id="refresh" transform="matrix(0.839, 0.545, -0.545, 0.839, 7.745, 0)">
    <path id="Path_92128" data-name="Path 92128" d="M13.629,6.518a.591.591,0,0,0-.592.592A5.924,5.924,0,1,1,11.67,3.323H9.624a.592.592,0,0,0,0,1.184h3.326a.591.591,0,0,0,.592-.592V.592a.592.592,0,1,0-1.184,0V2.3A7.116,7.116,0,1,0,14.221,7.11.591.591,0,0,0,13.629,6.518Z" transform="translate(0)" fill="#707070"/>
  </g>
</svg>
