<svg id="security-camera_1_" data-name="security-camera (1)" xmlns="http://www.w3.org/2000/svg" width="15.018" height="11.21" viewBox="0 0 15.018 11.21">
  <g id="Group_3495" data-name="Group 3495">
    <path id="Path_92015" data-name="Path 92015" d="M14.794,56.079,4.627,51.009a.405.405,0,0,0-.543.182l-2.169,4.35a.405.405,0,0,0,.182.543L5.132,57.6l-.269.54a.405.405,0,0,0,.182.543l.1.048-.523.931H1.533A1.725,1.725,0,0,0,0,58.726v3.45a1.724,1.724,0,0,0,1.513-.9H5.091a.81.81,0,0,0,.706-.413l.794-1.414.138.069a.405.405,0,0,0,.543-.182l.269-.54,2.268,1.131a.4.4,0,0,0,.408-.027l.626-.423,1.118.557a.405.405,0,0,0,.543-.182l1.144-2.295,1.187-.781a.405.405,0,0,0-.042-.7Z" transform="translate(0 -50.967)" fill="#9f9f9f"/>
  </g>
</svg>
