<svg id="mode" xmlns="http://www.w3.org/2000/svg" width="12.338" height="10.506" viewBox="0 0 12.338 10.506">
  <g id="Group_3501" data-name="Group 3501">
    <g id="Group_3500" data-name="Group 3500">
      <path id="Path_91866" data-name="Path 91866" d="M86.024,118a.482.482,0,0,0-.482.482v7.133h-9.06a.482.482,0,0,0,0,.964h9.542a.482.482,0,0,0,.482-.482v-7.615A.482.482,0,0,0,86.024,118Z" transform="translate(-74.169 -116.072)" fill="#707070"/>
      <path id="Path_91867" data-name="Path 91867" d="M10.506,46.193V38.482A.482.482,0,0,0,10.024,38H.482A.482.482,0,0,0,0,38.482v7.711a.482.482,0,0,0,.482.482h9.542A.482.482,0,0,0,10.506,46.193Zm-.964-.482H.964v-5.06H9.542Zm0-6.024H.964v-.723H9.542Z" transform="translate(0 -38)" fill="#707070"/>
    </g>
  </g>
</svg>
