<svg id="radiation" xmlns="http://www.w3.org/2000/svg" width="11.443" height="10.831" viewBox="0 0 11.443 10.831">
  <path id="Path_36" data-name="Path 36" d="M4.746,19.953,2.831,22.882a3.888,3.888,0,0,1-2.714-4.7l3.494-.194a2.4,2.4,0,0,0,1.135,1.966Zm6.578-1.816-3.494-.194A2.4,2.4,0,0,1,6.7,19.909l1.915,2.928a3.888,3.888,0,0,0,2.714-4.7ZM5.682,15.993a2.4,2.4,0,0,1,1.135.284L8.4,13.154a3.888,3.888,0,0,0-5.427,0l1.579,3.123A2.4,2.4,0,0,1,5.682,15.993Zm0,.757a1.239,1.239,0,1,0,1.239,1.238A1.239,1.239,0,0,0,5.682,16.749Z" transform="translate(0 -12.051)" fill="#707070"/>
</svg>
