<svg id="swing" xmlns="http://www.w3.org/2000/svg" width="10.503" height="10.503" viewBox="0 0 10.503 10.503">
  <ellipse id="Ellipse_93" data-name="Ellipse 93" cy="0.748" ry="0.748" transform="translate(5.251 0.765)" fill="#707070"/>
  <ellipse id="Ellipse_94" data-name="Ellipse 94" cy="0.748" ry="0.748" transform="translate(5.251 0.765)" fill="#707070"/>
  <path id="Path_92132" data-name="Path 92132" d="M347.88,262.836a.205.205,0,0,0,.129.167l2.067.806a.205.205,0,0,0,.28-.2l-.051-2.218a.205.205,0,0,0-.323-.163l-.336.235-1.294-1.849a.205.205,0,0,0-.286-.05l-1.008.706a.205.205,0,0,0-.05.286l1.294,1.849-.336.235A.205.205,0,0,0,347.88,262.836Zm-.419-2.344.672-.471,1.294,1.849a.205.205,0,0,0,.286.05l.19-.133.035,1.528-1.424-.555.19-.133a.205.205,0,0,0,.05-.286Z" transform="translate(-339.853 -254.207)" fill="#707070"/>
  <path id="Path_92133" data-name="Path 92133" d="M3.383,260.406a.205.205,0,0,0-.084-.132l-1.008-.706a.205.205,0,0,0-.286.05L.71,261.466l-.336-.235a.205.205,0,0,0-.323.163L0,263.613a.205.205,0,0,0,.28.2L2.347,263a.205.205,0,0,0,.043-.359l-.336-.235,1.294-1.849a.2.2,0,0,0,.034-.153ZM1.6,262.34a.205.205,0,0,0,.05.286l.19.133-1.424.555.035-1.528.19.133a.205.205,0,0,0,.286-.05l1.294-1.849.672.471Z" transform="translate(0 -254.206)" fill="#707070"/>
  <path id="Path_92134" data-name="Path 92134" d="M186.616,282.205v2.257h-.41a.205.205,0,0,0-.171.319l1.231,1.846a.205.205,0,0,0,.341,0l1.231-1.846a.205.205,0,0,0-.171-.319h-.41v-2.257a.205.205,0,0,0-.205-.205h-1.231A.205.205,0,0,0,186.616,282.205Zm.41,2.462V282.41h.821v2.257a.205.205,0,0,0,.205.205h.232l-.848,1.271-.848-1.271h.232A.205.205,0,0,0,187.026,284.667Z" transform="translate(-182.185 -276.215)" fill="#707070"/>
  <circle id="Ellipse_95" data-name="Ellipse 95" transform="translate(5.251 3.756)" fill="#707070"/>
  <path id="Path_92135" data-name="Path 92135" d="M9.683,0H.821A.822.822,0,0,0,0,.821v3.2a.205.205,0,0,0,.205.205H4.329a.205.205,0,1,0,0-.41H1.641V3H8.862v.821H6.175a.205.205,0,1,0,0,.41H10.3a.205.205,0,0,0,.205-.205V.821A.822.822,0,0,0,9.683,0Zm.41,3.816H9.272V2.79a.205.205,0,0,0-.205-.205H1.436a.205.205,0,0,0-.205.205V3.816H.41v-3A.411.411,0,0,1,.821.41H9.683a.411.411,0,0,1,.41.41Z" transform="translate(0)" fill="#707070"/>
</svg>
