<svg xmlns="http://www.w3.org/2000/svg" width="14.857" height="14.857" viewBox="0 0 14.857 14.857">
  <path id="volume-off" d="M10.428,3.825,8.7,5.55l1.725,1.725M4.048,3,3,4.048l3.9,3.9H3V12.9H6.3l4.127,4.127V11.477l3.508,3.516a5.7,5.7,0,0,1-1.857.966v1.709a7.439,7.439,0,0,0,3.037-1.494l1.692,1.684,1.048-1.048L10.428,9.38m5.778,1.048a5.648,5.648,0,0,1-.446,2.179l1.246,1.246a7.359,7.359,0,0,0,.85-3.425A7.434,7.434,0,0,0,12.079,3.19v1.7a5.782,5.782,0,0,1,4.127,5.538m-2.063,0A3.685,3.685,0,0,0,12.079,7.1V8.926L14.1,10.948A2.178,2.178,0,0,0,14.143,10.428Z" transform="translate(-3 -3)" fill="#9f9f9f"/>
</svg>
